<!DOCTYPE svg PUBLIC "-//W3C//DTD SVG 1.1//EN" "http://www.w3.org/Graphics/SVG/1.1/DTD/svg11.dtd">
<!-- Uploaded to: SVG Repo, www.svgrepo.com, Transformed by: SVG Repo Mixer Tools -->
<svg fill="#100a25" version="1.1" id="Capa_1" xmlns="http://www.w3.org/2000/svg" xmlns:xlink="http://www.w3.org/1999/xlink" width="220px" height="220px" viewBox="-84.88 -84.88 594.17 594.17" xml:space="preserve" stroke="#100a25">
<g id="SVGRepo_bgCarrier" stroke-width="0">
<path transform="translate(-84.88, -84.88), scale(18.5678125)" d="M16,30.538978923644336C17.969945409729583,30.21667054854813,19.446968686331918,28.649643389183236,21.26626277009427,27.828219842674415C23.076159521812187,27.011039254950845,25.391612366435933,27.12771558091365,26.754392271386934,25.68329829512223C28.11571157407334,24.240429109028337,28.213387794311917,22.035899351819445,28.571957923574395,20.084876749580673C28.902880447294255,18.284288048298404,28.63040299690651,16.481217061661805,28.780929255220236,14.656670204645367C28.96183090151217,12.463939621499339,30.444361613459858,10.186490947416909,29.55459186340076,8.174252738910067C28.686704278309154,6.211501634712534,26.35942418297343,5.207323758734658,24.3145967986379,4.555939290347295C22.420809372687717,3.952668948243533,20.3979789377612,4.79416614887169,18.41750999580259,4.626509683782034C16.689916533186867,4.480260375389595,15.083139811932444,3.3591958285893937,13.370563287082918,3.629472869442223C11.645139016403434,3.901777528141124,10.255332476834658,5.121409929476672,8.835383180905222,6.138750943094257C7.40931700472918,7.16047447457223,5.919170458036491,8.155718525185643,4.9826281060936015,9.639117371290917C4.034283613179332,11.141209747125197,4.025044793415742,13.001912958660247,3.4427600695566696,14.680180900063128C2.7142694070387616,16.779845332975594,0.6480397438904157,18.665831069846615,1.0954524954080878,20.842781047680923C1.5286304192035598,22.95046945934574,4.113910276582111,23.810516026966397,5.6325466367360075,25.33489693735213C7.083347605198597,26.791185854910637,8.069049624518403,28.764681241148345,9.906212893027526,29.686869934603536C11.75951307466441,30.61715876759927,13.953527834031913,30.873808059129534,16,30.538978923644336" fill="#958cd4" strokewidth="0"/>
</g>
<g id="SVGRepo_tracerCarrier" stroke-linecap="round" stroke-linejoin="round"/>
<g id="SVGRepo_iconCarrier"> <g> <path d="M69.511,56.196v328.965c0,21.681,17.566,39.249,39.25,39.249h206.885c21.664,0,39.253-17.568,39.253-39.249V56.196 c0-4.344-1.487-11.041-3.298-14.98l-7.879-17.051C337.56,10.818,314.974,0,293.301,0H133.758c-21.676,0-44.852,10.818-51.76,24.165 c-3.476,6.728-6.622,12.82-8.892,17.2C71.127,45.218,69.511,51.86,69.511,56.196z M122.178,391.065 c-6.061,0-10.966-4.909-10.966-10.965c0-6.055,4.905-10.964,10.966-10.964c6.053,0,10.966,4.909,10.966,10.964 C133.145,386.156,128.231,391.065,122.178,391.065z M113.206,223.034c0-6.056,4.921-10.96,10.974-10.96 c6.051,0,10.958,4.905,10.958,10.96c0,6.055-4.915,10.96-10.958,10.96C118.126,233.994,113.206,229.088,113.206,223.034z M302.214,391.065c-6.056,0-10.96-4.909-10.96-10.965c0-6.055,4.913-10.964,10.96-10.964c6.051,0,10.956,4.909,10.956,10.964 C313.17,386.156,308.273,391.065,302.214,391.065z M304.209,233.994c-6.051,0-10.956-4.905-10.956-10.956 c0-6.051,4.913-10.957,10.956-10.957c6.063,0,10.969,4.905,10.969,10.957C315.178,229.088,310.272,233.994,304.209,233.994z M300.206,110.018c10.503,0,19.016,8.51,19.016,19.005c0,10.496-8.513,19.005-19.016,19.005c-10.495,0-19.003-8.51-19.003-19.005 C281.203,118.528,289.711,110.018,300.206,110.018z M212.189,215.046c48.612,0,88.017,39.409,88.017,88.008 c0,48.605-39.405,88.011-88.017,88.011c-48.608,0-88.009-39.405-88.009-88.011C124.18,254.456,163.581,215.046,212.189,215.046z M128.514,110.018c10.496,0,19.005,8.51,19.005,19.005c0,10.496-8.51,19.005-19.005,19.005c-10.497,0-19.001-8.51-19.001-19.005 C109.513,118.528,118.017,110.018,128.514,110.018z"/> <path d="M212.189,276.06c14.91,0,26.992,12.09,26.992,26.994c0,14.919-12.082,27.002-26.992,27.002 c-14.912,0-26.996-12.083-26.996-27.002C185.193,288.15,197.277,276.06,212.189,276.06z"/> </g> </g>
</svg>