<!DOCTYPE svg PUBLIC "-//W3C//DTD SVG 1.1//EN" "http://www.w3.org/Graphics/SVG/1.1/DTD/svg11.dtd">
<!-- Uploaded to: SVG Repo, www.svgrepo.com, Transformed by: SVG Repo Mixer Tools -->
<svg fill="#100a25" version="1.1" id="Capa_1" xmlns="http://www.w3.org/2000/svg" xmlns:xlink="http://www.w3.org/1999/xlink" width="220px" height="220px" viewBox="-65.18 -65.18 440.75 440.75" xml:space="preserve" stroke="#100a25">
<g id="SVGRepo_bgCarrier" stroke-width="0">
<path transform="translate(-65.18, -65.18), scale(13.7734375)" d="M16,29.433894964555897C19.150595054894065,29.5712483556434,22.308539431006373,28.41688494742746,24.608982116171575,26.259785365526778C26.82403759462584,24.182752419966832,27.363368954083203,21.082108032383143,28.0589797146254,18.126323483504525C28.808301328356894,14.942311139759319,30.59632376966319,11.339590416760856,28.756812942280124,8.634850613772873C26.924479535482476,5.940664189895888,22.748691397293783,6.9839568174652715,19.69969280765781,5.8351775520415C16.588562714669653,4.662988835716957,14.081101323158752,1.0482814451008378,10.865844248362414,1.894023004412654C7.636669728097585,2.7434254100451034,6.67710261399005,6.762545850547342,5.062636671928855,9.685310338313375C3.489682644210337,12.532923318761107,1.0866920646305376,15.326390860224388,1.6792076088989258,18.525142083675604C2.2700415476760747,21.714815000786174,5.418118265695744,23.56994298223331,7.998647199367388,25.535640945767653C10.432110345389034,27.38931268261759,12.943843934165525,29.300658737106435,16,29.433894964555897" fill="#958cd4" strokewidth="0"/>
</g>
<g id="SVGRepo_tracerCarrier" stroke-linecap="round" stroke-linejoin="round"/>
<g id="SVGRepo_iconCarrier"> <g> <path d="M4.305,103.722l-4.148,33.614c-1.388,11.244,6.602,21.484,17.849,22.872l62.826,7.751 c10.574-16.399,26.178-29.209,44.638-36.304l1.574-12.785c1.388-11.247-6.602-21.484-17.849-22.875L27.179,85.88 C15.932,84.49,5.692,92.482,4.305,103.722z"/> <path d="M214.606,22.368l-3.092-11.348l-18.595,5.601l3.056,11.203c-50.65,15.436-88.981,31.952-87.399,37.961 c1.67,6.351,47.369-1.437,102.385-17.399l1.962,3.562c-4.722,2.206-8.031,7.177-8.031,12.972c0,6.208,3.807,11.431,9.077,13.362 v4.665l-24.306,3.001c-11.247,1.39-19.236,11.63-17.849,22.874l2.227,18.046c14.814,2.529,28.401,8.578,39.928,17.279v3.257v3.376 c-11.102-9.204-24.533-15.664-39.255-18.452c-5.261-0.997-10.683-1.574-16.233-1.574c-11.956,0-23.356,2.428-33.738,6.809 c-15.477,6.532-28.671,17.422-38.072,31.11C77.057,182.68,71.4,199.602,71.4,217.834c0,14.529,3.627,28.216,9.942,40.271 l-1.918,2.18l-1.835,2.081l-18.792,21.355c-4.836,5.494-4.306,13.872,1.199,18.708c2.519,2.217,5.637,3.304,8.749,3.304 c3.674,0,7.337-1.522,9.958-4.505l15.293-17.372l1.722-1.958l1.776-2.02c15.729,15.462,37.256,25.031,60.999,25.031 c23.332,0,44.5-9.274,60.153-24.27l1.776,2.02l1.725,1.957l14.618,16.611c2.62,2.982,6.286,4.505,9.957,4.505 c3.112,0,6.24-1.087,8.751-3.304c5.499-4.836,6.032-13.214,1.196-18.708l-17.9-20.34l-1.808-2.056l-1.858-2.118 c6.68-12.318,10.475-26.408,10.475-41.378c0-20.263-7.016-38.883-18.662-53.697v-4.298V156.8v-0.839 c0.229,0.249,0.456,0.5,0.684,0.753l53.272-6.576c11.247-1.388,19.237-11.627,17.85-22.874l-4.147-33.611 c-1.389-11.247-11.631-19.237-22.877-17.849l-44.781,5.525v-5.512c3.004-2.604,4.956-6.501,4.956-10.918 c0-5.155-2.636-9.629-6.535-12.117l-4.101-7.462c51.48-15.581,90.705-32.392,89.104-38.468 C308.719,0.781,266.6,7.707,214.606,22.368z"/> </g> </g>
</svg>