<!DOCTYPE svg PUBLIC "-//W3C//DTD SVG 1.1//EN" "http://www.w3.org/Graphics/SVG/1.1/DTD/svg11.dtd">
<!-- Uploaded to: SVG Repo, www.svgrepo.com, Transformed by: SVG Repo Mixer Tools -->
<svg fill="#d40f9a" version="1.1" id="Capa_1" xmlns="http://www.w3.org/2000/svg" xmlns:xlink="http://www.w3.org/1999/xlink" width="800px" height="800px" viewBox="0 0 387.543 387.544" xml:space="preserve">
<g id="SVGRepo_bgCarrier" stroke-width="0"/>
<g id="SVGRepo_tracerCarrier" stroke-linecap="round" stroke-linejoin="round"/>
<g id="SVGRepo_iconCarrier"> <g> <path d="M207.826,111.955L194.898,0.006h137.548v154.068l-15.54-1.589l6.71-1.909l-6.99-24.566l-25.209,7.173l4.896,17.202 l-10.479-1.072l5.895-2.433l-18.913-45.83l-11.946,4.932l16.636-20.414l18.669,44.476l14.894-4.232l-7.879-48.74l-4.847-17.05 l25.824-31.676l-28.267,23.054l-0.39-1.34l-26.11,7.432l3.593,12.577l-55.996,45.647l1.767-17.171L207.826,111.955z M332.458,163.414v224.13H55.098v-224.13l53.356,5.45l-33.46,13.804l18.907,45.834l28.494-11.765l-59.022,72.399l107.154-87.342 l-1.754,17.165l10.93-13.402l12.909,126.35l-4.609-10.339c-1.477-3.318-5.361-4.811-8.674-3.331 c-3.315,1.468-4.631,6.388-3.154,9.712l7.693,16.636c-6.777-2.759-14.553,0.354-17.503,7.101c-0.085,0.207-0.122,0.414-0.198,0.614 c-0.736-0.396-1.51-0.725-2.326-0.98c0.399-0.614,0.786-1.242,1.083-1.93c2.993-6.862-0.137-14.846-6.993-17.842 c-2.354-1.028-4.835-1.284-7.209-0.968l13.369-28.905c1.477-3.307,0.155-8.227-3.154-9.7c-3.312-1.474-7.197,0.019-8.674,3.324 l-10.65,23.912c-0.636-0.65-1.397-1.187-2.302-1.534c-3.386-1.297-7.794,1.249-9.091,4.634l-2.825,7.666 c-0.548-0.377-1.151-0.688-1.769-0.992l-3.3-7.41c-1.477-3.318-5.361-4.805-8.671-3.331c-3.318,1.462-4.634,6.382-3.157,9.706 l1.087,2.351c-1.82,1.352-3.361,3.142-4.335,5.364c-2.268,5.2-1.001,11.04,2.725,14.876c-0.673,0.146-1.34,0.329-1.982,0.597 l-25.078-49.279c-1.477-3.318-5.361-4.805-8.674-3.331c-3.315,1.474-4.631,6.394-3.154,9.706l13.673,29.557 c-3.06-1.084-6.272-1.035-9.146,0.013v-15.661c0-3.623-2.938-6.564-6.567-6.564c-0.073,0-0.131,0.043-0.204,0.043 c-0.076-0.006-0.131-0.043-0.207-0.043c-3.623,0-6.564,2.936-6.564,6.564v55.679h0.25v4.093h73.146h49.633h16.048h49.627h74.415 V367.42l0.512-57.805c-0.024-3.629-2.996-6.559-6.619-6.521c-3.629,0.03-6.795,4-6.771,7.629l0.561,26.519 c-6.132-1.272-12.544,1.863-15.149,7.843c-0.719,1.662-1.078,3.361-1.114,5.066c-3.873,0.122-7.526,1.894-10.029,4.933 l-0.28-38.892c-0.024-3.629-2.989-6.546-6.618-6.521c-3.63,0.03-6.809,4.007-6.771,7.636l0.024,1.193 c-0.134-0.067-0.22-0.213-0.354-0.274c-3.312-1.467-7.197,0.019-8.683,3.325L252.8,346.473c-0.901-0.688-1.852-1.327-2.935-1.797 c-3.069-1.346-6.37-1.406-9.354-0.486l-0.194-27.992c-0.024-3.629-2.996-6.552-6.625-6.521c-3.63,0.03-6.796,4.013-6.771,7.643 l0.712,33.514c-0.712-0.121-1.442-0.219-2.197-0.219c-2.808,0-5.401,0.853-7.575,2.314c-1.157-3.557-3.727-6.632-7.411-8.245 c-2.521-1.108-5.199-1.364-7.721-0.926l7.313-15.819c1.479-3.312,0.152-8.215-3.154-9.7c-3.31-1.468-7.194,0.019-8.677,3.331 l-2.938,6.594l12.534-122.604l10.924,13.408l-1.741-17.189l107.163,87.36l-87.354-107.159l17.159,1.753l-13.396-10.933 l91.886-9.384H332.458z M272.03,299.537l-0.012-7.66l-61.306,0.116l0.012,7.666L272.03,299.537z M281.833,279.814l-0.013-7.666 l-71.146,0.141l0.013,7.666L281.833,279.814z M273.26,333.302l-7.819,16.916c1.401,0.128,2.802,0.42,4.153,1.011 c1.583,0.688,2.959,1.674,4.104,2.831L273.26,333.302z M146.974,144.684l-91.888,9.383V0H192.63l-12.921,111.949l-10.93-13.405 l1.754,17.165L63.373,28.345l87.361,107.16l-17.166-1.751L146.974,144.684z M173.943,44.847l-1.998-7.411L112.75,53.38l1.994,7.401 L173.943,44.847z M107.623,34.364l1.997,7.401l68.713-18.508l-1.998-7.401L107.623,34.364z M252.587,116.138l-131.042,54.066 l-38.414,15.85l14.148,34.3l33.396-13.779l142.06-58.605l10.852-4.476l-14.157-34.3L252.587,116.138z M302.695,150.033l13.214-3.76 l-3.581-12.568l-13.22,3.764L302.695,150.033z M282.217,79.786l0.87,3.008l16.696,39.744l4.251-1.212l-6.918-42.904l-3.58-12.52 l-2.313-8.138l-4.811,1.364l-9.305,2.652l1.139,4.004L282.217,79.786z"/> </g> </g>
</svg>